<?xml version="1.0" encoding="UTF-8"?>
<!DOCTYPE svg PUBLIC "-//W3C//DTD SVG 1.1//EN" "http://www.w3.org/Graphics/SVG/1.1/DTD/svg11.dtd">
<!-- Creator: CorelDRAW -->
<svg xmlns="http://www.w3.org/2000/svg" xml:space="preserve" width="43.3492mm" height="43.3492mm" version="1.1" style="shape-rendering:geometricPrecision; text-rendering:geometricPrecision; image-rendering:optimizeQuality; fill-rule:evenodd; clip-rule:evenodd"
viewBox="0 0 4335 4335"
 xmlns:xlink="http://www.w3.org/1999/xlink">
 <defs>
  <style type="text/css">
   <![CDATA[
    .fil0 {fill:black}
   ]]>
  </style>
 </defs>
 <g id="Layer_x0020_1">
  <metadata id="CorelCorpID_0Corel-Layer"/>
  <path class="fil0" d="M2800 1690l-1217 0c-138,0 -251,-111 -251,-246l0 -1198c0,-135 113,-246 251,-246l1217 0c137,0 250,111 250,246l0 1194c0,139 -113,250 -250,250zm-854 -427c-18,0 -32,-7 -42,-17l-237 -233c-24,-24 -24,-62 0,-86 25,-25 64,-25 89,0l194 191 677 -674c24,-24 63,-24 88,0 25,25 25,63 0,87l-727 715c-10,10 -24,17 -42,17 0,0 0,0 0,0z"/>
  <path class="fil0" d="M4295 4335c-606,0 -1338,0 -1989,0 -19,0 -36,-8 -48,-20 -12,-12 -19,-28 -19,-46l0 -270c0,-320 219,-588 517,-669 -3,14 -4,27 -4,40l4 288c1,61 28,115 78,151l367 261c31,22 65,33 102,35l4 0 6 0c32,0 62,-6 88,-21 6,-3 8,-4 21,-13l367 -258c49,-35 78,-92 79,-151l3 -243c7,-26 8,-52 5,-78 280,92 479,353 479,658l0 270c4,36 -22,66 -60,66z"/>
  <path class="fil0" d="M3312 3981l-1 0 0 0c-15,0 -26,-4 -37,-11l-366 -262c-19,-11 -26,-29 -26,-52l-4 -287c0,-10 2,-21 7,-30l3 -10c111,106 257,171 413,171 4,0 9,0 14,0 5,0 9,0 14,0 156,0 302,-65 413,-171l3 10c4,9 7,20 7,30l-4 287c0,23 -8,41 -26,52l-367 262c-11,7 -22,11 -36,11l0 0 -1 0 -1 0 0 0 0 0 -2 0 -2 0 -1 0 0 0 0 0z"/>
  <polygon class="fil0" points="2706,2137 2706,2137 "/>
  <path class="fil0" d="M2829 2823c0,0 -3,0 -3,0 -45,-4 -86,-26 -116,-63 -109,-129 -86,-449 -64,-626 15,-155 146,-203 262,-248 15,-7 34,-11 49,-18 18,-7 41,-26 59,-44 41,-33 90,-74 161,-81 359,-41 752,92 785,376 27,228 38,523 -63,645 -30,37 -71,59 -116,63 -19,0 -38,-4 -49,-19 -15,-11 -22,-29 -22,-48 -4,-365 -60,-391 -157,-402 -206,-33 -430,-44 -546,56 -75,66 -112,177 -116,343 0,18 -8,33 -22,48 -12,11 -27,18 -42,18z"/>
  <path class="fil0" d="M3301 3376c-229,0 -483,-188 -539,-608 -4,-37 23,-67 56,-74 38,-4 67,22 75,55 45,343 236,498 408,498 172,0 362,-155 407,-498 4,-37 37,-59 75,-55 37,4 60,37 56,74 -56,420 -310,608 -538,608z"/>
  <path class="fil0" d="M2036 4334c-606,0 -1338,0 -1989,0 -19,0 -36,-7 -48,-20 -12,-11 -19,-28 -19,-46l0 -269c0,-321 219,-589 517,-669 -3,13 -4,26 -4,40l4 287c1,61 28,115 78,151l367 262c31,22 65,32 102,34l4 0 6 0c32,0 62,-5 88,-21 6,-3 8,-4 21,-13l367 -258c49,-35 78,-91 79,-151l3 -243c7,-25 8,-52 5,-78 280,92 479,353 479,659l0 269c4,37 -23,66 -60,66z"/>
  <path class="fil0" d="M1053 3980l-1 0 0 0c-15,0 -26,-4 -37,-11l-366 -262c-19,-11 -26,-29 -26,-51l-4 -288c0,-10 2,-20 7,-29l3 -10c111,105 257,170 413,170 4,0 9,0 14,0 5,0 9,0 14,0 156,0 302,-65 413,-170l3 10c4,9 7,19 7,29l-4 288c0,22 -8,40 -26,51l-367 262c-11,7 -22,11 -36,11l0 0 -1 0 -1 0 0 0 0 0 -2 0 -2 0 -1 0 0 0 0 0z"/>
  <polygon class="fil0" points="447,2136 447,2136 "/>
  <path class="fil0" d="M570 2822c0,0 -3,0 -3,0 -45,-3 -86,-26 -116,-62 -109,-129 -86,-450 -64,-627 15,-155 146,-203 262,-247 15,-8 34,-11 49,-19 18,-7 41,-26 59,-44 41,-33 90,-74 161,-81 359,-41 752,92 785,376 27,229 38,524 -63,645 -30,37 -71,59 -116,63 -19,0 -38,-4 -49,-18 -15,-12 -22,-30 -22,-48 -4,-365 -60,-391 -157,-402 -206,-34 -430,-45 -546,55 -75,66 -112,177 -116,343 0,18 -8,33 -22,48 -12,11 -27,18 -42,18z"/>
  <path class="fil0" d="M1042 3375c-229,0 -483,-188 -539,-608 -4,-37 23,-66 56,-74 38,-3 67,22 75,56 45,342 236,497 408,497 172,0 362,-155 407,-497 4,-37 37,-59 75,-56 37,4 60,37 56,74 -56,420 -310,608 -538,608z"/>
 </g>
</svg>
